# This file uses centimeters as units for non-parametric coordinates.

v -4.450000 0.565891 -4.993261
v -3.850000 0.565891 -4.993261
v -4.450000 1.765891 -4.993261
v -3.850000 1.765891 -4.993261
v -5.430000 0.565891 -4.996774
v -4.830000 0.565891 -4.996774
v -5.430000 1.765891 -4.996774
v -4.830000 1.765891 -4.996774
vt 0.375000 0.000000
vt 0.625000 0.000000
vt 0.625000 0.250000
vt 0.375000 0.250000
vt 0.375000 0.000000
vt 0.625000 0.000000
vt 0.625000 0.250000
vt 0.375000 0.250000
vn 0.000000 0.000000 1.000000
vn 0.000000 0.000000 1.000000
vn 0.000000 0.000000 1.000000
vn 0.000000 0.000000 1.000000
vn 0.000000 0.000000 1.000000
vn 0.000000 0.000000 1.000000
vn 0.000000 0.000000 1.000000
vn 0.000000 0.000000 1.000000
f 1/1/1 2/2/2 4/3/3 3/4/4
f 5/5/5 6/6/6 8/7/7 7/8/8
